<?xml version="1.0" encoding="UTF-8"?>
<svg version="1.1" xmlns="http://www.w3.org/2000/svg" width="936" height="267">
<path d="M0 0 C4.39336325 2.11177921 8.57337554 4.20933482 12.5 7.125 C17.53700396 10.74510331 22.74779375 14.02211049 28.02734375 17.27197266 C29.33198073 18.07721923 30.62911972 18.89473319 31.91870117 19.72387695 C34.03302881 21.06111038 34.03302881 21.06111038 36.49731445 22.25073242 C39.06226766 23.64753882 41.01023246 24.8559389 43 27 C43.84303794 30.7792004 43.40432285 34.35569668 43.0625 38.1875 C42.71193956 45.54974579 42.71193956 45.54974579 45.52978516 52.11035156 C49.3071641 55.52892189 53.60839201 57.97196906 58.20654297 60.12817383 C60 61 60 61 63 63 C63.48188782 65.01998901 63.48188782 65.01998901 63.6262207 67.53466797 C63.68409256 68.47680145 63.74196442 69.41893494 63.80158997 70.38961792 C63.97552821 74.73497528 64.1228762 79.07883678 64.21508789 83.42675781 C64.27956288 85.70907543 64.38158734 87.99066826 64.52270508 90.26953125 C65.65138449 108.6711562 65.65138449 108.6711562 61.19769287 114.26281738 C56.6126037 118.34724673 49.42947955 124 43 124 C43 131.92 43 139.84 43 148 C32.6875 153.8125 32.6875 153.8125 29.27856445 155.72827148 C24.28686385 158.54119782 19.32242028 161.38482642 14.41796875 164.34765625 C13.56436768 164.85901123 12.7107666 165.37036621 11.83129883 165.8972168 C10.22355619 166.86448309 8.62276141 167.84341635 7.0300293 168.83520508 C1.77844347 171.9784431 1.77844347 171.9784431 -1.5390625 172.0703125 C-5.13533028 170.50622143 -8.42392371 168.56998582 -11.75 166.5 C-12.43449219 166.08363281 -13.11898437 165.66726562 -13.82421875 165.23828125 C-18.81624681 162.18375319 -18.81624681 162.18375319 -20 161 C-20.07325168 158.13732433 -20.09238205 155.299281 -20.0625 152.4375 C-20.05798828 151.63119141 -20.05347656 150.82488281 -20.04882812 149.99414062 C-20.03700518 147.99606244 -20.01906914 145.99802217 -20 144 C-16.43253226 144.81068006 -13.64379139 146.1533188 -10.4375 147.9375 C-9.48746094 148.46214844 -8.53742188 148.98679688 -7.55859375 149.52734375 C-5.66510839 150.61718189 -3.81780311 151.78813126 -2 153 C2.92497984 152.79880189 6.75219908 149.97470239 10.8125 147.4375 C11.50537109 147.01275391 12.19824219 146.58800781 12.91210938 146.15039062 C14.61216951 145.10690544 16.30665476 144.05434704 18 143 C15.09332093 139.92233981 12.0812996 137.47737366 8.5625 135.125 C7.63566406 134.48820313 6.70882812 133.85140625 5.75390625 133.1953125 C3.08724369 131.70850028 3.08724369 131.70850028 0.46484375 132.6171875 C-2.05164899 134.02897582 -4.52573808 135.51544285 -7 137 C-11.62 134.36 -16.24 131.72 -21 129 C-19.73818642 125.21455925 -18.48797952 124.78874679 -15.125 122.75 C-13.64966797 121.84314453 -13.64966797 121.84314453 -12.14453125 120.91796875 C-11.10683594 120.28503906 -10.06914062 119.65210938 -9 119 C-6.93478488 117.6917764 -4.87213515 116.37949109 -2.8125 115.0625 C-1.20833333 114.04166667 0.39583333 113.02083333 2 112 C2.88300781 112.56847656 3.76601562 113.13695312 4.67578125 113.72265625 C12.10401329 118.50269759 19.54201548 123.26646289 27 128 C26.87238281 127.21496094 26.74476563 126.42992187 26.61328125 125.62109375 C26.28570888 122.15393167 26.23481753 119.40698565 27 116 C30.21809735 112.81669289 34.00631596 111.0624413 38 109 C40.20454928 107.4162518 42.31863962 105.75667573 44.44140625 104.06640625 C46 103 46 103 48 103 C48.1297929 98.71147421 48.18612033 94.42984857 48.17700195 90.13989258 C48.183942 88.68393525 48.21030683 87.22792746 48.25708008 85.77270508 C48.67233182 76.91561275 48.67233182 76.91561275 44.61181641 69.40673828 C39.62230262 65.91524346 39.62230262 65.91524346 33.79272461 65.2746582 C31.46952786 66.21463063 29.39012721 67.31714449 27.25 68.625 C26.05117188 69.32496094 26.05117188 69.32496094 24.828125 70.0390625 C22.71620483 71.9817823 22.71620483 71.9817823 22.203125 75.3203125 C23.24150392 80.11517988 25.07351637 81.11920637 29.04296875 83.734375 C30.25919922 84.48460937 30.25919922 84.48460937 31.5 85.25 C33.09944775 86.26713689 34.69353247 87.29277307 36.28125 88.328125 C36.99345703 88.7705957 37.70566406 89.21306641 38.43945312 89.66894531 C38.95443359 90.10819336 39.46941406 90.54744141 40 91 C40 91.99 40 92.98 40 94 C37.76953125 95.89453125 37.76953125 95.89453125 34.8125 97.8125 C33.36810547 98.78123047 33.36810547 98.78123047 31.89453125 99.76953125 C29 101 29 101 26.38671875 100.37109375 C23.46783074 98.69428575 20.77404941 96.81805239 18.0625 94.828125 C15.98180366 93.75718343 15.98180366 93.75718343 13.63671875 94.6015625 C10.53423295 96.24702904 7.69871747 98.12436727 4.8125 100.125 C-0.77935943 104 -0.77935943 104 -3 104 C-3.18964787 101.10109685 -3.32785971 98.21461131 -3.4375 95.3125 C-3.52547852 94.08756836 -3.52547852 94.08756836 -3.61523438 92.83789062 C-3.78418239 86.87643914 -3.78418239 86.87643914 -1.48095703 84.30224609 C3.0117284 81 3.0117284 81 6 81 C6.0899204 73.47796033 6.0899204 73.47796033 2.4375 67.3125 C1.633125 66.879375 0.82875 66.44625 0 66 C-1.69170958 66.60028404 -3.35008418 67.29289322 -5 68 C-5.74983154 68.19948242 -6.49966309 68.39896484 -7.2722168 68.60449219 C-10.27182743 69.69196797 -11.88843195 70.5769654 -14 73 C-14.73279688 78.07435089 -14.35555896 82.98110446 -14.01992798 88.0821228 C-12.98311041 105.82678942 -12.98311041 105.82678942 -16.80810547 111.84472656 C-22.81168584 117.45922119 -30.16031377 120.04007844 -38 122 C-38 128.6 -38 135.2 -38 142 C-44.23761779 140.44059555 -49.44654519 137.57453562 -54 133 C-55.0208634 128.81956439 -54.75803427 125.2113015 -54 121 C-54.5775 120.71125 -55.155 120.4225 -55.75 120.125 C-58 119 -58 119 -59.890625 117.71484375 C-62.10864058 116.73188956 -62.10864058 116.73188956 -64.796875 117.87890625 C-69.15949991 120.3660641 -72.27435406 122.28685423 -74.27734375 127.015625 C-74.77655648 131.02834444 -74.60067221 133.26509817 -73 137 C-67.68834774 142.29725754 -60.1141864 145.43771072 -53.48828125 148.76171875 C-50.25262224 150.64389948 -48.19298757 151.94888685 -46 155 C-44.72695987 160.93625647 -45.36722204 167.01737204 -46 173 C-50.05056398 172.13221595 -52.9472147 170.20541197 -56.3125 167.875 C-57.63314575 166.976439 -58.95483523 166.07941085 -60.27734375 165.18359375 C-61.38118408 164.43505127 -61.38118408 164.43505127 -62.50732422 163.67138672 C-68.456143 159.68259011 -74.48393944 155.81206068 -80.4934082 151.91552734 C-81.45206787 151.29242676 -82.41072754 150.66932617 -83.3984375 150.02734375 C-84.26130371 149.46781006 -85.12416992 148.90827637 -86.01318359 148.33178711 C-88 147 -88 147 -89 146 C-89.08713831 144.29227642 -89.10700007 142.58101351 -89.09765625 140.87109375 C-89.09443359 139.83662109 -89.09121094 138.80214844 -89.08789062 137.73632812 C-89.07951172 136.64771484 -89.07113281 135.55910156 -89.0625 134.4375 C-89.05798828 133.34501953 -89.05347656 132.25253906 -89.04882812 131.12695312 C-89.03699826 128.41791505 -89.02051543 125.70898401 -89 123 C-90.1612439 122.55406494 -90.1612439 122.55406494 -91.34594727 122.09912109 C-94.20965884 120.91317412 -96.42931907 119.43976598 -98.9375 117.625 C-101.64784696 115.67492469 -104.07299439 113.96549085 -107.1015625 112.53369141 C-110.29308157 109.74380049 -110.45538839 109.33268987 -110.85571289 105.35839844 C-110.9290965 103.44306615 -110.96574919 101.52610013 -110.97265625 99.609375 C-110.99025497 98.59079407 -111.0078537 97.57221313 -111.02598572 96.52276611 C-111.0519673 94.36768571 -111.06186554 92.21236016 -111.05688477 90.05712891 C-111.06246231 86.77219536 -111.15838373 83.49803833 -111.25976562 80.21484375 C-111.47317248 65.0398274 -111.47317248 65.0398274 -107.79248047 59.94335938 C-104.94314131 57.85175438 -102.24014853 56.40071931 -99 55 C-94.10038295 52.54813305 -94.10038295 52.54813305 -90 49 C-89.36567132 45.26560884 -89.98870506 41.73732619 -90.4375 38 C-90.65880426 32.56394707 -90.74606763 27.91806337 -86.94287109 23.74023438 C-81.18409997 19.44901078 -74.7334177 16.49204462 -68.21728516 13.53320312 C-62.5371601 10.82632914 -57.28703102 7.38592362 -51.97900391 4.02050781 C-46.69506917 0.86270239 -46.69506917 0.86270239 -43.46875 1.5 C-42.6540625 1.995 -41.839375 2.49 -41 3 C-39.74611753 3.5168388 -38.48932743 4.0266527 -37.23046875 4.53125 C-28.9630464 8.37260741 -28.9630464 8.37260741 -26 12 C-24.16090229 17.834244 -25.13451543 24.05700592 -26 30 C-30.08735998 28.76068385 -33.50930061 27.26689617 -37.125 25 C-38.74443208 23.99100805 -40.36911464 22.99037263 -42 22 C-42.62551758 21.5992627 -43.25103516 21.19852539 -43.89550781 20.78564453 C-45.97432417 19.75441193 -45.97432417 19.75441193 -47.98291016 20.69091797 C-48.66144043 21.12033691 -49.3399707 21.54975586 -50.0390625 21.9921875 C-50.78414062 22.44980469 -51.52921875 22.90742187 -52.296875 23.37890625 C-53.06515625 23.87261719 -53.8334375 24.36632812 -54.625 24.875 C-56.15668065 25.83420865 -57.6904386 26.79011071 -59.2265625 27.7421875 C-59.90283691 28.1738623 -60.57911133 28.60553711 -61.27587891 29.05029297 C-63 30 -63 30 -65 30 C-65 30.66 -65 31.32 -65 32 C-64.278125 32.25394531 -63.55625 32.50789063 -62.8125 32.76953125 C-58.90799381 34.47775271 -55.84632157 37.02763365 -52.5 39.63671875 C-50.08377153 41.24589409 -50.08377153 41.24589409 -47.34375 40.8125 C-44.86769789 40.06664595 -44.86769789 40.06664595 -42.5 38.3125 C-41.675 37.879375 -40.85 37.44625 -40 37 C-36.28498249 38.16757693 -33.02762898 40.02066431 -29.6875 42 C-28.36298828 42.7734375 -28.36298828 42.7734375 -27.01171875 43.5625 C-26.01591797 44.2740625 -26.01591797 44.2740625 -25 45 C-25 45.66 -25 46.32 -25 47 C-26.3894043 48.08154297 -26.3894043 48.08154297 -28.32421875 49.2421875 C-29.02353516 49.66886719 -29.72285156 50.09554687 -30.44335938 50.53515625 C-31.18392578 50.97730469 -31.92449219 51.41945312 -32.6875 51.875 C-34.13076716 52.74431373 -35.57221601 53.61665433 -37.01171875 54.4921875 C-38.0488501 55.12012207 -38.0488501 55.12012207 -39.10693359 55.76074219 C-41.21982353 57.08004342 -41.21982353 57.08004342 -43.70703125 59.3828125 C-46 61 -46 61 -48.32568359 60.79858398 C-51.35658942 59.89351799 -53.46931719 58.61905394 -56.08203125 56.83984375 C-57.01337891 56.21142578 -57.94472656 55.58300781 -58.90429688 54.93554688 C-59.86400391 54.27619141 -60.82371094 53.61683594 -61.8125 52.9375 C-62.79154297 52.27427734 -63.77058594 51.61105469 -64.77929688 50.92773438 C-67.1912172 49.29233474 -69.59778094 47.64960202 -72 46 C-72.79393618 48.81514907 -73.01583662 50.87453346 -73.0703125 53.8828125 C-73.38378172 56.51375843 -73.70858308 57.68701042 -75.53027344 59.64355469 C-77.58379703 61.18599725 -79.67795547 62.54531044 -81.875 63.875 C-82.60847656 64.34679687 -83.34195313 64.81859375 -84.09765625 65.3046875 C-85.45990865 66.17811709 -86.82888488 67.04121442 -88.20654297 67.89013672 C-89.82613235 68.89240371 -91.41525348 69.94350232 -93 71 C-93.74917037 75.15061691 -93.77023207 79.31628514 -93.83056641 83.52880859 C-93.87449874 85.6013528 -93.9930126 87.66115513 -94.11328125 89.73046875 C-94.28291219 97.3608574 -94.28291219 97.3608574 -90.66503906 103.81542969 C-87.79196492 106.05926488 -85.4404156 107.78162946 -82 109 C-78.58098998 108.07932142 -76.10078694 106.51790816 -73.3125 104.375 C-70.21676301 102 -70.21676301 102 -68 102 C-67.94212071 98.8608996 -67.95123478 96.899184 -69 94 C-71.69123809 91.33474628 -74.80370407 89.52740551 -78.0625 87.625 C-79.74430509 86.60195479 -81.42289203 85.57359363 -83.09765625 84.5390625 C-84.21926147 83.87704834 -84.21926147 83.87704834 -85.36352539 83.20166016 C-86.17358032 82.60683838 -86.17358032 82.60683838 -87 82 C-87 81.34 -87 80.68 -87 80 C-84.76953125 78.23828125 -84.76953125 78.23828125 -81.8125 76.3125 C-80.84957031 75.66925781 -79.88664062 75.02601563 -78.89453125 74.36328125 C-76 73 -76 73 -73.41796875 73.09375 C-69.87513312 74.42159793 -67.24334023 76.60774697 -64.28125 78.91796875 C-62.03897496 80.27261558 -62.03897496 80.27261558 -59.60546875 79.43359375 C-56.53943231 77.7465842 -53.68876977 75.8687373 -50.8125 73.875 C-45.22064057 70 -45.22064057 70 -43 70 C-42.02885351 82.98908434 -42.02885351 82.98908434 -43 88 C-44.97438394 90.13025636 -46.5298785 90.75212349 -49.19921875 91.8046875 C-51.27462892 92.89838027 -51.27462892 92.89838027 -51.70703125 95.5703125 C-51.87849181 100.434712 -51.89237755 103.04069414 -48.5 106.6875 C-47.675 107.120625 -46.85 107.55375 -46 108 C-41.70764454 106.47690613 -37.91070929 104.30437885 -33.98828125 102.0234375 C-32 101 -32 101 -30 101 C-30.10997314 99.94723877 -30.21994629 98.89447754 -30.33325195 97.80981445 C-33.16817143 68.19245608 -33.16817143 68.19245608 -27.95507812 61.29394531 C-24.37469034 58.61471608 -20.69013042 56.91389842 -16.58642578 55.18017578 C-11.22473614 53.01467237 -11.22473614 53.01467237 -7.90722656 48.58398438 C-6.78294267 42.67573644 -7.21401487 36.92739161 -8 31 C-1.91886101 33.23049076 3.50139202 36.28897883 8 41 C8.75816732 43.97119624 8.81490697 46.50277006 8.78515625 49.55859375 C8.77189863 52.36100321 8.77189863 52.36100321 11.75 54.8125 C14.83361771 56.25892759 14.83361771 56.25892759 17.5 55.5 C18.325 55.005 19.15 54.51 20 54 C21.0725 53.5875 22.145 53.175 23.25 52.75 C27.81884422 48.18115578 26.98340624 42.20606654 27 36 C26.443125 35.73445313 25.88625 35.46890625 25.3125 35.1953125 C21.7497939 33.3537786 18.44048683 31.16865789 15.10546875 28.9453125 C12.02680921 26.92661893 12.02680921 26.92661893 8.61328125 25.4296875 C4.95478625 23.56796815 2.60904656 22.19329459 0 19 C-1.46296847 12.77448535 -0.6846826 6.28893647 0 0 Z " fill="#AA6BF8" transform="translate(147,55)"/>
<path d="M0 0 C7.425 -0.061875 14.85 -0.12375 22.5 -0.1875 C24.82869141 -0.21481201 27.15738281 -0.24212402 29.55664062 -0.27026367 C31.42317182 -0.27903378 33.2897088 -0.28667647 35.15625 -0.29296875 C36.10854492 -0.30831665 37.06083984 -0.32366455 38.04199219 -0.33947754 C46.95873338 -0.34294259 53.52993013 1.68039687 60 8 C63.81526463 13.39399482 64.67685192 18.42838319 64 25 C62.32353773 30.20585653 60.16685549 33.45817283 56 37 C55.01 37.33 54.02 37.66 53 38 C53 38.66 53 39.32 53 40 C53.845625 40.04125 54.69125 40.0825 55.5625 40.125 C61.41497397 41.61472065 65.35473386 45.42092537 68.4375 50.5625 C71.49085696 57.46229365 71.17149918 65.89809367 68.5 72.875 C64.74914139 80.03453362 59.16126685 83.92573924 51.63398743 86.36517334 C46.91411035 87.50272767 42.23268382 87.36622856 37.40234375 87.29296875 C36.44815552 87.28994751 35.49396729 87.28692627 34.51086426 87.28381348 C30.98629762 87.26825588 27.4618866 87.22637318 23.9375 87.1875 C16.038125 87.125625 8.13875 87.06375 0 87 C0 58.29 0 29.58 0 0 Z M19 13 C19 20.26 19 27.52 19 35 C22.9909375 35.0928125 22.9909375 35.0928125 27.0625 35.1875 C27.8862915 35.21481201 28.71008301 35.24212402 29.55883789 35.27026367 C34.79052053 35.32852573 38.39706398 34.54480794 43 32 C45.15607248 28.42900496 46 26.0430077 46 21.875 C44.71850476 18.19070118 43.0083163 16.44862955 40 14 C37.25277553 13.09350015 34.77143839 12.88051941 31.890625 12.90234375 C30.8701709 12.90609009 30.8701709 12.90609009 29.82910156 12.90991211 C28.97799805 12.91901611 28.12689453 12.92812012 27.25 12.9375 C24.5275 12.958125 21.805 12.97875 19 13 Z M19 48 C19 55.92 19 63.84 19 72 C22.67125 72.061875 26.3425 72.12375 30.125 72.1875 C31.2711377 72.21481201 32.41727539 72.24212402 33.59814453 72.27026367 C39.11998966 72.31528661 43.29923299 72.26506477 48 69 C50.63592536 65.42874629 51.22234122 62.70458647 50.9375 58.375 C50.47044811 55.41866091 50.04780118 54.06904615 48.3125 51.5625 C42.26427908 47.47586425 36.14050102 47.75237794 29.125 47.875 C25.78375 47.91625 22.4425 47.9575 19 48 Z " fill="#FCFCFC" transform="translate(352,95)"/>
<path d="M0 0 C7.92 0 15.84 0 24 0 C27.36854599 8.98278932 27.36854599 8.98278932 28.4375 12.06640625 C28.68685303 12.78280273 28.93620605 13.49919922 29.19311523 14.23730469 C29.59252319 15.38827637 29.59252319 15.38827637 30 16.5625 C32.18367539 22.83523229 34.38734861 29.10038431 36.62109375 35.35546875 C41.05170994 47.7679822 45.45672556 60.18364179 49.625 72.6875 C50.12084595 74.1739502 50.12084595 74.1739502 50.62670898 75.69042969 C51.87104311 79.453067 53.03794837 83.15179349 54 87 C47.4 87 40.8 87 34 87 C30.58461538 79.03076923 30.58461538 79.03076923 29.3125 74.75 C29.06113281 73.91984375 28.80976562 73.0896875 28.55078125 72.234375 C28 70 28 70 28 67 C17.44 67 6.88 67 -4 67 C-4.99 70.63 -5.98 74.26 -7 78 C-7.99 80.97 -8.98 83.94 -10 87 C-16.6 87 -23.2 87 -30 87 C-27.4521727 78.04121375 -24.34864796 69.29730288 -21.24679565 60.5194397 C-16.87652167 48.14977281 -12.53419748 35.77589453 -8.4375 23.3125 C-5.84871821 15.43724586 -3.0799733 7.69993325 0 0 Z M11 20 C9.57399373 24.39596774 8.14987791 28.79254154 6.72753906 33.18969727 C6.24303752 34.68661192 5.75801256 36.18335727 5.27246094 37.67993164 C4.57610798 39.82654621 3.88161717 41.97375535 3.1875 44.12109375 C2.96876221 44.79401962 2.75002441 45.4669455 2.5246582 46.16026306 C1.45356357 49.022725 1.45356357 49.022725 1 52 C7.93 52 14.86 52 22 52 C19.54195016 41.0110713 15.82427367 30.5767766 12 20 C11.67 20 11.34 20 11 20 Z " fill="#FDFDFD" transform="translate(711,95)"/>
<path d="M0 0 C7.92 0 15.84 0 24 0 C29.29944588 14.29850493 34.2857517 28.66643368 39.05395508 43.14819336 C41.57000497 50.77966504 44.17205407 58.36762694 46.89526367 65.92822266 C48.24061725 69.66904888 49.54084583 73.42098146 50.8125 77.1875 C51.23144531 78.41855469 51.65039062 79.64960938 52.08203125 80.91796875 C53 84 53 84 53 87 C46.4 87 39.8 87 33 87 C32.175 84.4425 31.35 81.885 30.5 79.25 C30.23896484 78.45110352 29.97792969 77.65220703 29.70898438 76.82910156 C29.50595703 76.1894043 29.30292969 75.54970703 29.09375 74.890625 C28.88427734 74.24125977 28.67480469 73.59189453 28.45898438 72.92285156 C28 71 28 71 28 67 C17.44 67 6.88 67 -4 67 C-4.99 70.63 -5.98 74.26 -7 78 C-7.99 80.97 -8.98 83.94 -10 87 C-16.6 87 -23.2 87 -30 87 C-27.29432748 77.61970676 -24.11394042 68.41591451 -20.9375 59.1875 C-20.3573853 57.4984129 -19.77738989 55.80928483 -19.19750977 54.12011719 C-18.02728378 50.71235575 -16.85583608 47.30501754 -15.68359375 43.89794922 C-14.37198351 40.08453966 -13.06498172 36.26958171 -11.76097107 32.4535675 C-10.65512689 29.2183663 -9.54604842 25.98427555 -8.4375 22.75 C-8.0448999 21.59910889 -7.6522998 20.44821777 -7.24780273 19.26245117 C-6.87598877 18.18068604 -6.5041748 17.0989209 -6.12109375 15.984375 C-5.8058374 15.06366211 -5.49058105 14.14294922 -5.16577148 13.19433594 C-3.54651316 8.75739858 -1.75414428 4.3853607 0 0 Z M11 19 C10.83918945 19.53778076 10.67837891 20.07556152 10.51269531 20.62963867 C7.38077931 31.09877159 4.23112236 41.56098929 1 52 C7.93 52 14.86 52 22 52 C19.9678346 44.3653109 17.73760384 36.83082818 15.3125 29.3125 C14.99216797 28.31283203 14.67183594 27.31316406 14.34179688 26.28320312 C13.5633079 23.85478228 12.78268758 21.42707018 12 19 C11.67 19 11.34 19 11 19 Z " fill="#FDFDFD" transform="translate(288,95)"/>
<path d="M0 0 C6.27 0 12.54 0 19 0 C19.01458252 1.78092041 19.02916504 3.56184082 19.04418945 5.39672852 C19.09596667 11.30011273 19.16128633 17.20326491 19.23571491 23.10640049 C19.28032303 26.68329653 19.31959953 30.26008118 19.34643555 33.8371582 C19.37256487 37.29331807 19.4130335 40.7490471 19.46318626 44.20493889 C19.4878363 46.15618491 19.49787487 48.10759796 19.50764465 50.05897522 C19.6122323 56.40327595 19.73153818 61.47120741 23 67 C27.73708275 70.46615811 33.2415261 71.12989039 39 71 C44.07357847 70.1847448 47.13331206 69.01835833 50.5 65.0625 C52.68551018 60.60041672 53.12430705 57.18124298 53.11352539 52.22167969 C53.11344986 51.0607782 53.11337433 49.89987671 53.11329651 48.70379639 C53.10813522 47.45576233 53.10297394 46.20772827 53.09765625 44.921875 C53.0962413 43.64016418 53.09482635 42.35845337 53.09336853 41.03790283 C53.08955901 37.6381636 53.07974214 34.2384674 53.06866455 30.83874512 C53.05841674 27.366461 53.0538637 23.8941699 53.04882812 20.421875 C53.03811841 13.61456392 53.02053433 6.80728846 53 0 C59.27 0 65.54 0 72 0 C72.09081509 8.02421195 72.16400939 16.04801608 72.20724869 24.07260609 C72.22801431 27.79982092 72.25612611 31.52666219 72.30175781 35.25366211 C72.3456147 38.85877272 72.36921972 42.46352685 72.37950897 46.0688839 C72.38682972 47.435855 72.4011229 48.80280933 72.42292023 50.16962624 C72.60013372 61.75576826 71.1920537 71.70637979 62.921875 80.34765625 C53.17945148 88.72376428 40.54783603 88.74374712 28.38330078 88.19091797 C20.33111045 87.5458849 13.49331538 84.6829774 7.6875 79.05859375 C1.68732019 71.73892996 -0.13284193 64.02981184 -0.11352539 54.71923828 C-0.11344986 53.4984256 -0.11337433 52.27761292 -0.11329651 51.01980591 C-0.10813522 49.71647308 -0.10297394 48.41314026 -0.09765625 47.0703125 C-0.09578901 45.71125338 -0.09436655 44.35219358 -0.09336853 42.99313354 C-0.08956748 39.43231314 -0.07975802 35.87153413 -0.06866455 32.31072998 C-0.05839835 28.67070068 -0.05385979 25.03066463 -0.04882812 21.390625 C-0.03813339 14.26039821 -0.02055635 7.13020618 0 0 Z " fill="#FCFCFC" transform="translate(436,95)"/>
<path d="M0 0 C20.79 0 41.58 0 63 0 C63 18.88888889 63 18.88888889 56.06640625 25.99609375 C55.38449219 26.65738281 54.70257812 27.31867188 54 28 C53.67 28.66 53.34 29.32 53 30 C52.34 30 51.68 30 51 30 C50.74734375 30.55429688 50.4946875 31.10859375 50.234375 31.6796875 C47.48154782 36.85430567 43.56504102 41.36322364 40 46 C39.44070801 46.72751465 38.88141602 47.4550293 38.30517578 48.20458984 C36.47790804 50.57671921 34.64622253 52.94535738 32.8125 55.3125 C32.23081055 56.0648291 31.64912109 56.8171582 31.04980469 57.59228516 C30.48293945 58.32108887 29.91607422 59.04989258 29.33203125 59.80078125 C28.83421143 60.44184814 28.3363916 61.08291504 27.82348633 61.7434082 C25.28431005 64.8856771 22.62917057 67.93263434 20 71 C34.19 71.33 48.38 71.66 63 72 C63 76.95 63 81.9 63 87 C41.55 87 20.1 87 -2 87 C-2 69.05735294 -2 69.05735294 2.5 64.3125 C3.51674911 63.17258537 4.52951603 62.02911091 5.5390625 60.8828125 C6.37099121 59.96870605 6.37099121 59.96870605 7.21972656 59.03613281 C10.66258411 55.09847072 13.73604841 50.86812573 16.875 46.6875 C18.23845767 44.89107217 19.60303914 43.09549672 20.96875 41.30078125 C21.6390625 40.4185791 22.309375 39.53637695 23 38.62744141 C24.94311274 36.07473397 26.89197003 33.52655362 28.84375 30.98046875 C29.44074707 30.2016333 30.03774414 29.42279785 30.65283203 28.62036133 C31.77289601 27.16002273 32.89362835 25.70019643 34.01513672 24.2409668 C34.51287598 23.59168213 35.01061523 22.94239746 35.5234375 22.2734375 C35.95575684 21.71060059 36.38807617 21.14776367 36.83349609 20.56787109 C37.93939967 19.0814515 38.97231164 17.54153254 40 16 C20.2 15.505 20.2 15.505 0 15 C0 10.05 0 5.1 0 0 Z " fill="#FDFDFD" transform="translate(809,95)"/>
<path d="M0 0 C18.81 0 37.62 0 57 0 C57 4.95 57 9.9 57 15 C44.46 15 31.92 15 19 15 C19 22.26 19 29.52 19 37 C30.55 37 42.1 37 54 37 C54 41.95 54 46.9 54 52 C42.45 52 30.9 52 19 52 C19.33 63.55 19.66 75.1 20 87 C13.4 87 6.8 87 0 87 C0 58.29 0 29.58 0 0 Z " fill="#FDFDFD" transform="translate(626,95)"/>
<path d="M0 0 C6.27 0 12.54 0 19 0 C19 23.76 19 47.52 19 72 C31.87 72 44.74 72 58 72 C58 76.95 58 81.9 58 87 C38.86 87 19.72 87 0 87 C0 58.29 0 29.58 0 0 Z " fill="#FCFCFC" transform="translate(528,95)"/>
<path d="M0 0 C6.27 0 12.54 0 19 0 C18.67 28.71 18.34 57.42 18 87 C11.73 87 5.46 87 -1 87 C-0.67 58.29 -0.34 29.58 0 0 Z " fill="#FDFDFD" transform="translate(776,95)"/>
<path d="M0 0 C0.53625 0.2475 1.0725 0.495 1.625 0.75 C0.48135986 1.24387207 -0.66228027 1.73774414 -1.84057617 2.24658203 C-3.80293383 3.29419708 -3.80293383 3.29419708 -5.375 4.75 C-5.97982272 7.79460574 -6.10971288 9.78931312 -5.92578125 12.8046875 C-5.90231598 14.40493811 -5.87955137 16.00519911 -5.85742188 17.60546875 C-5.78058681 20.11672353 -5.68744805 22.62619016 -5.57788086 25.13623047 C-5.03408014 39.29173884 -5.03408014 39.29173884 -8.64599609 43.21972656 C-11.19412905 44.74851656 -13.54347589 45.86612734 -16.375 46.75 C-15.23400474 43.32701423 -14.37414379 42.60241234 -11.375 40.75 C-10.385 40.75 -9.395 40.75 -8.375 40.75 C-8.4064209 39.65010742 -8.4378418 38.55021484 -8.47021484 37.41699219 C-8.57890011 33.33216704 -8.64772612 29.24746925 -8.70458984 25.16162109 C-8.73474483 23.39414981 -8.77567678 21.62682797 -8.82763672 19.85986328 C-8.90051609 17.31765918 -8.93446628 14.7774338 -8.9609375 12.234375 C-9.00738907 11.05134796 -9.00738907 11.05134796 -9.05477905 9.84442139 C-9.05615234 7.60058594 -9.05615234 7.60058594 -8.375 3.75 C-3.68123287 -0.3874982 -3.68123287 -0.3874982 0 0 Z " fill="#976BD5" transform="translate(138.375,123.25)"/>
<path d="M0 0 C0.845625 0.45375 1.69125 0.9075 2.5625 1.375 C3.490625 1.82875 4.41875 2.2825 5.375 2.75 C8.52959267 6.53551121 8.25014183 9.76980317 8.0625 14.578125 C7.5625 17.375 7.5625 17.375 5.1875 20.125 C2.5625 21.375 2.5625 21.375 0.5625 21.375 C0.5625 22.035 0.5625 22.695 0.5625 23.375 C-0.4275 23.375 -1.4175 23.375 -2.4375 23.375 C-2.1075 27.665 -1.7775 31.955 -1.4375 36.375 C-0.4475 35.88 -0.4475 35.88 0.5625 35.375 C1.2225 36.035 1.8825 36.695 2.5625 37.375 C-1.1875 40.375 -1.1875 40.375 -3.4375 40.375 C-3.62714787 37.47609685 -3.76535971 34.58961131 -3.875 31.6875 C-3.93365234 30.87087891 -3.99230469 30.05425781 -4.05273438 29.21289062 C-4.22168239 23.25143914 -4.22168239 23.25143914 -1.91845703 20.67724609 C2.5742284 17.375 2.5742284 17.375 5.5625 17.375 C5.55429757 9.99248476 5.55429757 9.99248476 2.4375 3.5625 C-1.47186756 1.94776123 -3.58766742 2.86526173 -7.4375 4.375 C-6.4375 1.375 -6.4375 1.375 -4.6875 0.0625 C-2.4375 -0.625 -2.4375 -0.625 0 0 Z " fill="#9E6FD6" transform="translate(147.4375,118.625)"/>
<path d="M0 0 C0.66 0 1.32 0 2 0 C1.99476318 0.74161377 1.98952637 1.48322754 1.98413086 2.24731445 C1.96336386 5.60236771 1.9503407 8.95740744 1.9375 12.3125 C1.92912109 13.47974609 1.92074219 14.64699219 1.91210938 15.84960938 C1.90888672 16.96787109 1.90566406 18.08613281 1.90234375 19.23828125 C1.89710693 20.26993408 1.89187012 21.30158691 1.88647461 22.36450195 C1.88365 25.10946274 1.88365 25.10946274 3 28 C7.95 28.33 12.9 28.66 18 29 C18 26.69 18 24.38 18 22 C20 25 20 25 20 30 C13.4 30 6.8 30 0 30 C0 20.1 0 10.2 0 0 Z " fill="#F1F1F1" transform="translate(626,152)"/>
<path d="M0 0 C2.9719385 1.12451727 5.33440687 2.22293791 8 4 C8 4.66 8 5.32 8 6 C6.6105957 7.08154297 6.6105957 7.08154297 4.67578125 8.2421875 C3.97646484 8.66886719 3.27714844 9.09554687 2.55664062 9.53515625 C1.81607422 9.97730469 1.07550781 10.41945313 0.3125 10.875 C-5.45403761 14.33991339 -5.45403761 14.33991339 -10.87109375 18.31640625 C-13 20 -13 20 -15.375 20.0625 C-19.00712287 18.59235503 -21.92498481 16.40152483 -25 14 C-23.68 13.67 -22.36 13.34 -21 13 C-21 13.66 -21 14.32 -21 15 C-18.66785852 16.20628008 -16.50357861 17.1654738 -14 18 C-11.89585855 16.60907668 -10.00510028 15.21504554 -8.0625 13.625 C-4.71840679 10.91689998 -2.29588536 9.07397134 2 8 C1.34 5.36 0.68 2.72 0 0 Z " fill="#9871D7" transform="translate(114,96)"/>
<path d="M0 0 C5.84879682 2.77636924 11.13058553 5.92549206 16.4375 9.625 C17.15615234 10.11484375 17.87480469 10.6046875 18.61523438 11.109375 C23.87119521 14.74239042 23.87119521 14.74239042 25 17 C22.69 16.34 20.38 15.68 18 15 C18 14.34 18 13.68 18 13 C15.69 13.33 13.38 13.66 11 14 C10.731875 13.4225 10.46375 12.845 10.1875 12.25 C8.33551435 8.74097455 6.83226754 6.49539735 3.375 4.4375 C1 3 1 3 0 0 Z " fill="#AB6CFB" transform="translate(73,192)"/>
<path d="M0 0 C0.66 0.33 1.32 0.66 2 1 C-3.75 6 -3.75 6 -6 6 C-6 6.66 -6 7.32 -6 8 C-6.99 8.66 -7.98 9.32 -9 10 C-7.58912765 12.82174471 -5.92133047 12.93769801 -3 14 C-2.195625 14.45375 -1.39125 14.9075 -0.5625 15.375 C0.283125 15.58125 1.12875 15.7875 2 16 C4.03833424 14.7260411 6.03852126 13.38938077 8 12 C10.875 11.75 10.875 11.75 13 12 C13 12.66 13 13.32 13 14 C11.9790625 14.12375 11.9790625 14.12375 10.9375 14.25 C7.77515679 14.87048518 7.77515679 14.87048518 4.78125 17.28125 C2.92358398 18.36816406 2.92358398 18.36816406 1 19 C-2.00515241 17.90949631 -3.87496923 16.99631727 -6.4375 15.25 C-7.07365234 14.85039062 -7.70980469 14.45078125 -8.36523438 14.0390625 C-9.9272153 13.05254823 -11.46612676 12.02967358 -13 11 C-11.68858995 7.06576984 -10.00101263 6.49545868 -6.5 4.375 C-3.06452343 2.43360274 -3.06452343 2.43360274 0 0 Z " fill="#9B6BD7" transform="translate(139,173)"/>
<path d="M0 0 C0.99 0.33 1.98 0.66 3 1 C3 6.94 3 12.88 3 19 C-1.01560965 17.99609759 -2.95119372 16.82479402 -6.25 14.4375 C-7.14203125 13.79683594 -8.0340625 13.15617188 -8.953125 12.49609375 C-9.62859375 12.00238281 -10.3040625 11.50867188 -11 11 C-10.34 10.67 -9.68 10.34 -9 10 C-5.52085828 11.77379193 -2.31014019 13.92055296 1 16 C0.67 10.72 0.34 5.44 0 0 Z " fill="#966FCF" transform="translate(98,209)"/>
<path d="M0 0 C0.66 0.33 1.32 0.66 2 1 C-3.75 5 -3.75 5 -6 5 C-6 11.6 -6 18.2 -6 25 C-7.32 24.67 -8.64 24.34 -10 24 C-10.33 23.34 -10.66 22.68 -11 22 C-10.01 22 -9.02 22 -8 22 C-8.33 16.39 -8.66 10.78 -9 5 C-2.1640625 0.99609375 -2.1640625 0.99609375 0 0 Z " fill="#9A71D5" transform="translate(115,172)"/>
<path d="M0 0 C0.99 0.33 1.98 0.66 3 1 C5.00109278 0.67329097 7.00116131 0.34022786 9 0 C9.66 0.33 10.32 0.66 11 1 C10.67 1.66 10.34 2.32 10 3 C9.01 2.67 8.02 2.34 7 2 C2.68300469 3.58247629 -0.77934382 5.71670545 -4 9 C-5.23092945 13.39763591 -5.29348416 17.46123328 -5 22 C-5.33 22 -5.66 22 -6 22 C-6.68859351 8.0368538 -6.68859351 8.0368538 -4.125 4.125 C-3.42375 3.42375 -2.7225 2.7225 -2 2 C-1.34 2 -0.68 2 0 2 C0 1.34 0 0.68 0 0 Z " fill="#9F70E0" transform="translate(78,170)"/>
<path d="M0 0 C2.52002631 0.3405441 4.48916506 0.65780214 6.62109375 2.0859375 C9.36676951 5.89721546 8.87538048 10.82414531 8.69140625 15.36328125 C7.89883361 19.5321238 7.13690332 20.63870115 3.6875 23 C1.26171875 24.3125 1.26171875 24.3125 -1 25 C-1.99 24.67 -2.98 24.34 -4 24 C-3.36191406 23.72929688 -2.72382813 23.45859375 -2.06640625 23.1796875 C0.81110567 21.68032871 2.80056141 20.4069328 5 18 C6.0949459 13.30737471 6.16446075 8.80225376 6 4 C5.38125 3.71125 4.7625 3.4225 4.125 3.125 C2 2 2 2 0 0 Z " fill="#9C70D5" transform="translate(168,87)"/>
<path d="M0 0 C0.66 0.33 1.32 0.66 2 1 C0.68 2.32 -0.64 3.64 -2 5 C-1.67 5.99 -1.34 6.98 -1 8 C-1.33 8.33 -1.66 8.66 -2 9 C-2.400383 11.85528607 -2.7518227 14.69736487 -3.0625 17.5625 C-3.15337891 18.36880859 -3.24425781 19.17511719 -3.33789062 20.00585938 C-3.56247449 22.00347377 -3.78173236 24.0016856 -4 26 C-4.33 26 -4.66 26 -5 26 C-5.14496508 22.22956968 -5.23395607 18.45985258 -5.3125 14.6875 C-5.35439453 13.61564453 -5.39628906 12.54378906 -5.43945312 11.43945312 C-5.45556641 10.41142578 -5.47167969 9.38339844 -5.48828125 8.32421875 C-5.51446533 7.37635498 -5.54064941 6.42849121 -5.56762695 5.4519043 C-5 3 -5 3 -2.59448242 1.10473633 C-1.73830322 0.74017334 -0.88212402 0.37561035 0 0 Z " fill="#A06CE1" transform="translate(63,78)"/>
<path d="M0 0 C4.44607497 1.77842999 5.9797308 2.64414533 9 6 C4.25 4.125 4.25 4.125 2 3 C2 8.61 2 14.22 2 20 C1.01 20 0.02 20 -1 20 C-0.67 13.4 -0.34 6.8 0 0 Z " fill="#9A72D2" transform="translate(139,86)"/>
<path d="M0 0 C1.98 0.99 1.98 0.99 4 2 C3.67 2.66 3.34 3.32 3 4 C2.04727842 12.26043682 2.04727842 12.26043682 4.1171875 20.03515625 C5.58783647 21.54591853 5.58783647 21.54591853 8 23 C5.0280615 21.87548273 2.66559313 20.77706209 0 19 C-0.34057617 17.02880859 -0.34057617 17.02880859 -0.29296875 14.6484375 C-0.28330078 13.79765625 -0.27363281 12.946875 -0.26367188 12.0703125 C-0.23853516 11.18085937 -0.21339844 10.29140625 -0.1875 9.375 C-0.17396484 8.4778125 -0.16042969 7.580625 -0.14648438 6.65625 C-0.11106925 4.43690211 -0.06168461 2.21874812 0 0 Z " fill="#966DCF" transform="translate(147,55)"/>
<path d="M0 0 C0 5.94 0 11.88 0 18 C-1.98 18.99 -3.96 19.98 -6 21 C-5 18 -5 18 -3.44921875 16.66796875 C-1.35251361 14.25477981 -1.70182617 12.44825841 -1.8125 9.3125 C-1.85310547 7.82169922 -1.85310547 7.82169922 -1.89453125 6.30078125 C-1.92933594 5.54152344 -1.96414062 4.78226563 -2 4 C-5.13323425 4 -6.68020784 6.04649081 -9 8 C-9.66 7.34 -10.32 6.68 -11 6 C-9.54550599 4.9944239 -8.08627557 3.99569565 -6.625 3 C-5.40683594 2.1646875 -5.40683594 2.1646875 -4.1640625 1.3125 C-2 0 -2 0 0 0 Z " fill="#986CDD" transform="translate(104,125)"/>
<path d="M0 0 C2.86724686 0.57344937 3.8614515 0.8614515 6 3 C4.68 3 3.36 3 2 3 C2 7.62 2 12.24 2 17 C3.32 17.33 4.64 17.66 6 18 C6 18.66 6 19.32 6 20 C1.125 18.125 1.125 18.125 0 17 C-0.07325168 14.13732433 -0.09238205 11.299281 -0.0625 8.4375 C-0.05798828 7.63119141 -0.05347656 6.82488281 -0.04882812 5.99414062 C-0.03700518 3.99606244 -0.01906914 1.99802217 0 0 Z " fill="#9B71D5" transform="translate(127,199)"/>
<path d="M0 0 C1.98 0.66 3.96 1.32 6 2 C6 5.96 6 9.92 6 14 C7.32 14.66 8.64 15.32 10 16 C11.70496537 17.62746694 13.37897032 19.28891311 15 21 C13.30728055 20.4025696 11.64619113 19.71573527 10 19 C8.906875 18.54625 7.81375 18.0925 6.6875 17.625 C4 15 4 15 3.62109375 12.0703125 C3.62467628 9.02516142 3.74243125 6.03358755 4 3 C2.68 2.34 1.36 1.68 0 1 C0 0.67 0 0.34 0 0 Z " fill="#996CD2" transform="translate(89,173)"/>
<path d="M0 0 C0.33 0.66 0.66 1.32 1 2 C1.66 2 2.32 2 3 2 C4.625 3.375 4.625 3.375 6 5 C6 5.66 6 6.32 6 7 C10.51718381 8.36884358 13.58774263 7.47075246 18 6 C13.67723881 10.78591418 13.67723881 10.78591418 10 11 C7.58844738 9.82043622 5.48372876 8.63819637 3.25 7.1875 C2.64800781 6.81818359 2.04601562 6.44886719 1.42578125 6.06835938 C-0.09202066 5.10983822 -1.55193406 4.06093849 -3 3 C-3 2.34 -3 1.68 -3 1 C-2.01 0.67 -1.02 0.34 0 0 Z " fill="#9A72D7" transform="translate(164,145)"/>
<path d="M0 0 C2.7982895 1.06993422 5.41162952 2.21841566 8.0625 3.625 C11.0632297 5.28262674 11.0632297 5.28262674 15 5 C15.33 5.99 15.66 6.98 16 8 C15.67 8.66 15.34 9.32 15 10 C16.32 10.66 17.64 11.32 19 12 C15.74559017 12 15.06193978 11.62533887 12.4609375 9.8828125 C11.79835938 9.44066406 11.13578125 8.99851563 10.453125 8.54296875 C9.76734375 8.07503906 9.0815625 7.60710937 8.375 7.125 C7.68148437 6.66480469 6.98796875 6.20460937 6.2734375 5.73046875 C1.13352587 2.26705173 1.13352587 2.26705173 0 0 Z " fill="#9D6BDD" transform="translate(39,165)"/>
<path d="M0 0 C1.65 0 3.3 0 5 0 C4.34 0.66 3.68 1.32 3 2 C2.62948007 4.3245339 2.62948007 4.3245339 2.5859375 7.0078125 C2.54726563 7.99394531 2.50859375 8.98007813 2.46875 9.99609375 C2.4378125 11.02863281 2.406875 12.06117187 2.375 13.125 C2.33632813 14.16527344 2.29765625 15.20554687 2.2578125 16.27734375 C2.16335234 18.85138311 2.07778786 21.42541155 2 24 C1.67 24 1.34 24 1 24 C0.09516363 18.63510405 -0.12303662 13.49682543 -0.0625 8.0625 C-0.05798828 7.28326172 -0.05347656 6.50402344 -0.04882812 5.70117188 C-0.03716908 3.80074732 -0.01923877 1.90036294 0 0 Z " fill="#F9F9F9" transform="translate(626,95)"/>
<path d="M0 0 C0.9075 0.185625 1.815 0.37125 2.75 0.5625 C5.68314324 0.95734621 7.2644657 0.94691572 10 0 C6.24723608 3.29788344 2.63942218 5.17736986 -2 7 C-3.4540625 7.5878125 -3.4540625 7.5878125 -4.9375 8.1875 C-5.618125 8.455625 -6.29875 8.72375 -7 9 C-4.25 4.125 -4.25 4.125 -2 3 C-1.34 2.01 -0.68 1.02 0 0 Z " fill="#A66EEF" transform="translate(62,113)"/>
<path d="M0 0 C6.28911804 1.48952796 10.87007935 5.27292172 16 9 C17.98692386 10.35472081 19.99093053 11.67824377 22 13 C20.21875 13.6796875 20.21875 13.6796875 18 14 C16.21875 12.8203125 16.21875 12.8203125 14.5 11.125 C12.04543198 8.72621761 10.41197048 7.58362653 7 7 C7 6.34 7 5.68 7 5 C4.66785852 3.79371992 2.50357861 2.8345262 0 2 C0 1.34 0 0.68 0 0 Z " fill="#9F75DD" transform="translate(157,62)"/>
<path d="M0 0 C0.73605469 0.52851563 1.47210938 1.05703125 2.23046875 1.6015625 C3.20628906 2.26929688 4.18210937 2.93703125 5.1875 3.625 C6.63189453 4.63433594 6.63189453 4.63433594 8.10546875 5.6640625 C10.9076973 7.33157412 10.9076973 7.33157412 13.6875 6.28125 C14.450625 5.8584375 15.21375 5.435625 16 5 C17.66666667 4.33333333 19.33333333 3.66666667 21 3 C19.9346278 6.08957939 18.9623359 7.0251094 16.1875 8.875 C13 10 13 10 10.375 9.3125 C9.199375 8.6628125 9.199375 8.6628125 8 8 C7.319375 7.71125 6.63875 7.4225 5.9375 7.125 C3.52743716 5.72560868 1.8310097 4.09258252 0 2 C0 1.34 0 0.68 0 0 Z " fill="#A274E0" transform="translate(54,157)"/>
<path d="M0 0 C2.74710511 4.12065766 3.63965531 8.23879359 5 13 C9.29 13.33 13.58 13.66 18 14 C18 14.33 18 14.66 18 15 C13.05 15 8.1 15 3 15 C1.68 10.38 0.36 5.76 -1 1 C-0.67 0.67 -0.34 0.34 0 0 Z " fill="#F2F2F2" transform="translate(318,167)"/>
<path d="M0 0 C0.66 0.33 1.32 0.66 2 1 C-4.66640679 5.74728968 -11.61987122 9.47851723 -19 13 C-19 12.34 -19 11.68 -19 11 C-17.44961263 10.11909808 -15.89900669 9.23857976 -14.34765625 8.359375 C-12.53073249 7.30731265 -10.72886572 6.22922304 -8.93359375 5.140625 C-7.32677734 4.17382812 -7.32677734 4.17382812 -5.6875 3.1875 C-4.14642578 2.24970703 -4.14642578 2.24970703 -2.57421875 1.29296875 C-1.29998047 0.65294922 -1.29998047 0.65294922 0 0 Z " fill="#966AD0" transform="translate(100,73)"/>
<path d="M0 0 C0.66 0 1.32 0 2 0 C3.03411477 2.74564964 4.05251157 5.4954861 5.0625 8.25 C5.35705078 9.02730469 5.65160156 9.80460938 5.95507812 10.60546875 C6.22900391 11.35957031 6.50292969 12.11367187 6.78515625 12.890625 C7.17006226 13.92751465 7.17006226 13.92751465 7.56274414 14.98535156 C8.06952056 17.32031471 7.74214139 18.75375603 7 21 C3.9821733 14.24581644 1.18383258 7.33976201 0 0 Z " fill="#F3F3F3" transform="translate(743,123)"/>
<path d="M0 0 C1.32 0 2.64 0 4 0 C4 0.66 4 1.32 4 2 C5.1446875 1.505 5.1446875 1.505 6.3125 1 C9 0 9 0 12 0 C11.649375 0.78375 11.29875 1.5675 10.9375 2.375 C10.628125 3.24125 10.31875 4.1075 10 5 C10.33 5.66 10.66 6.32 11 7 C6.89188572 5.55007731 3.53144334 3.54592427 0 1 C0 0.67 0 0.34 0 0 Z " fill="#A26EE6" transform="translate(76,212)"/>
<path d="M0 0 C2.50045393 1.49332665 4.30642363 3.1842207 6.25 5.34375 C5.3425 5.034375 4.435 4.725 3.5 4.40625 C2.4275 4.055625 1.355 3.705 0.25 3.34375 C-0.39324219 3.10527344 -1.03648438 2.86679687 -1.69921875 2.62109375 C-4.52701484 2.23866799 -5.53801717 3.19595512 -7.8125 4.84375 C-9.84765625 6.3125 -9.84765625 6.3125 -11.75 7.34375 C-12.74 7.01375 -13.73 6.68375 -14.75 6.34375 C-12.86840566 5.11336136 -10.96907073 3.91006923 -9.0625 2.71875 C-8.00675781 2.04585937 -6.95101562 1.37296875 -5.86328125 0.6796875 C-2.75 -0.65625 -2.75 -0.65625 0 0 Z " fill="#9870D2" transform="translate(103.75,56.65625)"/>
<path d="M0 0 C1.11375 0.598125 2.2275 1.19625 3.375 1.8125 C4.00148437 2.14894531 4.62796875 2.48539063 5.2734375 2.83203125 C7 4 7 4 9 7 C7.68 7.99 6.36 8.98 5 10 C4.34 9.67 3.68 9.34 3 9 C3 7.33333333 3 5.66666667 3 4 C2.34 4 1.68 4 1 4 C0.67 2.68 0.34 1.36 0 0 Z " fill="#A075DF" transform="translate(179,141)"/>
<path d="M0 0 C0 0.66 0 1.32 0 2 C-4.38461538 5 -4.38461538 5 -7 5 C-5.7934375 6.175625 -5.7934375 6.175625 -4.5625 7.375 C-2 10 -2 10 -1 12 C-4.43927579 10.7580393 -7.25207819 9.44259716 -10 7 C-10 6.34 -10 5.68 -10 5 C-8.3203125 3.7109375 -8.3203125 3.7109375 -6.125 2.375 C-5.40570313 1.92898437 -4.68640625 1.48296875 -3.9453125 1.0234375 C-2 0 -2 0 0 0 Z " fill="#966FD1" transform="translate(70,130)"/>
<path d="M0 0 C0.33 0.99 0.66 1.98 1 3 C-0.89326541 4.12931621 -2.7897264 5.25327616 -4.6875 6.375 C-5.74324219 7.00148438 -6.79898438 7.62796875 -7.88671875 8.2734375 C-10.557191 9.75442713 -13.13932051 10.94913815 -16 12 C-12.8980055 8.65707389 -9.56424638 6.23755199 -5.75 3.75 C-4.67234375 3.04359375 -3.5946875 2.3371875 -2.484375 1.609375 C-1.66453125 1.07828125 -0.8446875 0.5471875 0 0 Z " fill="#9A6FD8" transform="translate(57,104)"/>
<path d="M0 0 C4.9335117 2.35406142 9.51978158 4.86384711 14 8 C11 9 11 9 8.80859375 8.14453125 C8.02613281 7.70496094 7.24367188 7.26539063 6.4375 6.8125 C5.65246094 6.38582031 4.86742188 5.95914063 4.05859375 5.51953125 C1.81108306 3.86055277 1.01730888 2.56801756 0 0 Z " fill="#A375E6" transform="translate(73,192)"/>
<path d="M0 0 C0.66 0 1.32 0 2 0 C2 4.62 2 9.24 2 14 C1.01 14 0.02 14 -1 14 C-1.02685938 11.85423363 -1.04633088 9.70837355 -1.0625 7.5625 C-1.07410156 6.36753906 -1.08570312 5.17257813 -1.09765625 3.94140625 C-1 1 -1 1 0 0 Z " fill="#976CDB" transform="translate(94,146)"/>
<path d="M0 0 C5.60743802 1.46280992 5.60743802 1.46280992 7.1875 3.625 C8.3071001 6.89767722 8.18886639 9.80121485 8.125 13.25 C8.10695313 14.51328125 8.08890625 15.7765625 8.0703125 17.078125 C8.04710938 18.04234375 8.02390625 19.0065625 8 20 C7.34 19.67 6.68 19.34 6 19 C6.05800781 18.19175781 6.11601563 17.38351563 6.17578125 16.55078125 C6.64207608 9.7166844 6.64207608 9.7166844 3.5625 3.875 C2.716875 3.25625 1.87125 2.6375 1 2 C0.67 1.34 0.34 0.68 0 0 Z " fill="#9F71E4" transform="translate(112,63)"/>
<path d="M0 0 C2.51672195 0.34009756 4.50177013 0.68038084 6.65625 2.0625 C8.73601753 5.06123458 8.31519342 8.18084225 8.1875 11.6875 C8.17396484 12.38939453 8.16042969 13.09128906 8.14648438 13.81445312 C8.11120182 15.54329829 8.05739583 17.27174765 8 19 C7.67 19 7.34 19 7 19 C6.99742187 18.03578125 6.99484375 17.0715625 6.9921875 16.078125 C7.13679865 9.24572199 7.13679865 9.24572199 4.59765625 3.21484375 C2.79012077 2.03156963 2.79012077 2.03156963 0 1 C0 0.67 0 0.34 0 0 Z " fill="#9767DF" transform="translate(168,87)"/>
<path d="M0 0 C0.66 0.33 1.32 0.66 2 1 C-3.75 6 -3.75 6 -6 6 C-6 6.66 -6 7.32 -6 8 C-9.465 9.485 -9.465 9.485 -13 11 C-11.68858995 7.06576984 -10.00101263 6.49545868 -6.5 4.375 C-3.06452343 2.43360274 -3.06452343 2.43360274 0 0 Z " fill="#9E79DA" transform="translate(139,173)"/>
<path d="M0 0 C0.99 0.33 1.98 0.66 3 1 C5.63804589 0.60602665 5.63804589 0.60602665 8 0 C5.4380406 2.83645505 3.79976979 4.38713391 0 5 C-0.99 5.33 -1.98 5.66 -3 6 C-3 5.34 -3 4.68 -3 4 C-2.34 4 -1.68 4 -1 4 C-0.67 2.68 -0.34 1.36 0 0 Z " fill="#A26FF1" transform="translate(114,169)"/>
<path d="M0 0 C0.721875 0.53625 1.44375 1.0725 2.1875 1.625 C4.91300084 3.35542751 4.91300084 3.35542751 7.625 2.1875 C8.40875 1.795625 9.1925 1.40375 10 1 C10.99 1 11.98 1 13 1 C11 4 11 4 7.625 4.875 C4 5 4 5 1.5625 3.6875 C0 2 0 2 0 0 Z " fill="#9D72E0" transform="translate(80,132)"/>
<path d="M0 0 C1.98 0 3.96 0 6 0 C3.25604436 2.94721162 0.61662784 5.19168608 -3 7 C-3.66 6.67 -4.32 6.34 -5 6 C-3.625 4.5 -3.625 4.5 -2 3 C-1.34 3 -0.68 3 0 3 C0 2.01 0 1.02 0 0 Z " fill="#A168E3" transform="translate(155,148)"/>
<path d="M0 0 C1.46313772 0.76167457 2.92036661 1.53470707 4.375 2.3125 C5.18710938 2.74175781 5.99921875 3.17101562 6.8359375 3.61328125 C9 5 9 5 11 8 C8.69 7.34 6.38 6.68 4 6 C4 5.34 4 4.68 4 4 C3.34 4 2.68 4 2 4 C2 3.34 2 2.68 2 2 C1.34 2 0.68 2 0 2 C0 1.34 0 0.68 0 0 Z " fill="#A578E7" transform="translate(87,201)"/>
<path d="M0 0 C0.33 0.66 0.66 1.32 1 2 C1.66 2 2.32 2 3 2 C4.625 4 4.625 4 6 6 C2.65626525 5.44271087 -0.03312999 4.64826111 -3 3 C-3 2.34 -3 1.68 -3 1 C-2.01 0.67 -1.02 0.34 0 0 Z " fill="#A06EE4" transform="translate(164,145)"/>
<path d="M0 0 C1.48280196 0.78483659 2.9611498 1.57809334 4.4375 2.375 C5.67306641 3.03628906 5.67306641 3.03628906 6.93359375 3.7109375 C9 5 9 5 10 7 C8.329375 6.4740625 8.329375 6.4740625 6.625 5.9375 C3.19735524 4.62760669 3.19735524 4.62760669 1 6 C0.67 4.02 0.34 2.04 0 0 Z " fill="#A073E1" transform="translate(159,174)"/>
<path d="M0 0 C1.65 0 3.3 0 5 0 C4.34 0.66 3.68 1.32 3 2 C2.53993654 4.20250992 2.53993654 4.20250992 2.375 6.625 C2.30023437 7.44226563 2.22546875 8.25953125 2.1484375 9.1015625 C2.09945312 9.72804688 2.05046875 10.35453125 2 11 C1.67 11 1.34 11 1 11 C0.67 7.37 0.34 3.74 0 0 Z " fill="#F3F3F3" transform="translate(626,95)"/>
<path d="M0 0 C0.66 0.66 1.32 1.32 2 2 C2.66 1.67 3.32 1.34 4 1 C4.66 1.66 5.32 2.32 6 3 C2.25 6 2.25 6 0 6 C0 4.02 0 2.04 0 0 Z " fill="#9267D2" transform="translate(144,153)"/>
<path d="M0 0 C2.475 0.99 2.475 0.99 5 2 C5 2.99 5 3.98 5 5 C4.01 5.33 3.02 5.66 2 6 C1.34 4.02 0.68 2.04 0 0 Z " fill="#A273EB" transform="translate(114,96)"/>
</svg>
